<?xml version="1.0" encoding="UTF-8" standalone="no"?>
<!-- Created with Inkscape (http://www.inkscape.org/) -->
<svg xmlns:dc="http://purl.org/dc/elements/1.1/" xmlns:cc="http://web.resource.org/cc/" xmlns:rdf="http://www.w3.org/1999/02/22-rdf-syntax-ns#" xmlns:svg="http://www.w3.org/2000/svg" xmlns="http://www.w3.org/2000/svg" xmlns:sodipodi="http://sodipodi.sourceforge.net/DTD/sodipodi-0.dtd" xmlns:inkscape="http://www.inkscape.org/namespaces/inkscape" width="445" height="235" id="svg5627" sodipodi:version="0.32" inkscape:version="0.44.1" version="1.0" sodipodi:docbase="/Users/bdesham/Documents/Miscellaneous/Commons images" sodipodi:docname="Vector addition.svg"><script xmlns=""/>
  <defs id="defs5629">
    <marker inkscape:stockid="Arrow1Send" orient="auto" refY="0" refX="0" id="Arrow1Send" style="overflow:visible">
      <path id="path2918" d="M 0,0 L 5,-5 L -12.5,0 L 5,5 L 0,0 z " style="fill-rule:evenodd;stroke:black;stroke-width:1pt;marker-start:none" transform="matrix(-0.2,0,0,-0.2,-1.2,0)"/>
    </marker>
    <marker inkscape:stockid="TriangleOutS" orient="auto" refY="0" refX="0" id="TriangleOutS" style="overflow:visible">
      <path id="path2829" d="M 5.77,0 L -2.88,5 L -2.88,-5 L 5.77,0 z " style="fill-rule:evenodd;stroke:black;stroke-width:1pt;marker-start:none" transform="scale(0.2,0.2)"/>
    </marker>
    <marker inkscape:stockid="TriangleOutM" orient="auto" refY="0" refX="0" id="TriangleOutM" style="overflow:visible">
      <path id="path2832" d="M 5.77,0 L -2.88,5 L -2.88,-5 L 5.77,0 z " style="fill-rule:evenodd;stroke:black;stroke-width:1pt;marker-start:none" transform="scale(0.4,0.4)"/>
    </marker>
    <marker inkscape:stockid="Arrow1Lend" orient="auto" refY="0" refX="0" id="Arrow1Lend" style="overflow:visible">
      <path id="path2930" d="M 0,0 L 5,-5 L -12.5,0 L 5,5 L 0,0 z " style="fill-rule:evenodd;stroke:black;stroke-width:1pt;marker-start:none" transform="matrix(-0.8,0,0,-0.8,-10,0)"/>
    </marker>
    <marker inkscape:stockid="Arrow1Mend" orient="auto" refY="0" refX="0" id="Arrow1Mend" style="overflow:visible">
      <path id="path2924" d="M 0,0 L 5,-5 L -12.5,0 L 5,5 L 0,0 z " style="fill-rule:evenodd;stroke:black;stroke-width:1pt;marker-start:none" transform="matrix(-0.4,0,0,-0.4,-4,0)"/>
    </marker>
    <marker inkscape:stockid="Arrow2Lend" orient="auto" refY="0" refX="0" id="Arrow2Lend" style="overflow:visible">
      <path id="path2912" style="font-size:12px;fill-rule:evenodd;stroke-width:0.625;stroke-linejoin:round" d="M 8.7185878,4.0337352 L -2.2072895,0.016013256 L 8.7185884,-4.0017078 C 6.97309,-1.6296469 6.9831476,1.6157441 8.7185878,4.0337352 z " transform="matrix(-1.1,0,0,-1.1,-1.1,0)"/>
    </marker>
  </defs>
  <sodipodi:namedview id="base" pagecolor="#ffffff" bordercolor="#666666" borderopacity="1.0" gridtolerance="50" guidetolerance="10" objecttolerance="10" inkscape:pageopacity="0.0" inkscape:pageshadow="2" inkscape:zoom="1.8309066" inkscape:cx="220.27599" inkscape:cy="119.52446" inkscape:document-units="px" inkscape:current-layer="layer1" height="235px" width="445px" showgrid="true" gridspacingx="4mm" gridspacingy="4mm" grid_units="mm" inkscape:grid-points="false" inkscape:grid-bbox="false" inkscape:window-width="1440" inkscape:window-height="785" inkscape:window-x="0" inkscape:window-y="22"/>
  <metadata id="metadata5632">
    <rdf:RDF>
      <cc:Work rdf:about="">
        <dc:format>image/svg+xml</dc:format>
        <dc:type rdf:resource="http://purl.org/dc/dcmitype/StillImage"/>
      </cc:Work>
    </rdf:RDF>
  </metadata>
  <g inkscape:label="Layer 1" inkscape:groupmode="layer" id="layer1" transform="translate(-27.72169,-42.26767)">
    <path id="path5637" d="M 172.41151,46.430711 L 30.661507,145.64946 L 32.099007,147.71196 L 173.84901,48.493211 L 172.41151,46.430711 z " style="fill:#3465a4;fill-opacity:1;fill-rule:evenodd;stroke:none;stroke-width:2.5;stroke-linecap:butt;stroke-linejoin:miter;stroke-miterlimit:4;stroke-opacity:1"/>
    <path id="path8525" d="M 170.66522,49.18077 L 170.0508,52.662505 L 175.78543,45.596635 L 167.18349,48.566343 L 170.66522,49.18077 z " style="fill:#3465a4;fill-rule:evenodd;stroke:#3465a4;stroke-width:0.2pt;marker-start:none"/>
    <path id="path6548" d="M 171.94276,47.024461 L 86.911507,273.80571 L 89.255257,274.68071 L 174.28651,47.899461 L 171.94276,47.024461 z " style="fill:#75507b;fill-opacity:1;fill-rule:evenodd;stroke:none;stroke-width:2.5;stroke-linecap:butt;stroke-linejoin:miter;stroke-miterlimit:4;stroke-opacity:1"/>
    <path id="path8517" d="M 172.06955,50.269188 L 173.53256,53.487819 L 174.26407,44.41713 L 168.85092,51.732202 L 172.06955,50.269188 z " style="fill:#75507b;fill-rule:evenodd;stroke:#75507b;stroke-width:0.2pt;marker-start:none"/>
    <path id="use7437" d="M 455.66151,46.430711 L 313.94276,145.64946 L 315.38026,147.71196 L 457.09901,48.493211 L 455.66151,46.430711 z " style="fill:#3465a4;fill-opacity:1;fill-rule:evenodd;stroke:none;stroke-width:2.5;stroke-linecap:butt;stroke-linejoin:miter;stroke-miterlimit:4;stroke-opacity:1"/>
    <path id="path8509" d="M 453.93462,49.180811 L 453.3202,52.662546 L 459.05483,45.596676 L 450.45289,48.566384 L 453.93462,49.180811 z " style="fill:#3465a4;fill-rule:evenodd;stroke:#3465a4;stroke-width:0.2pt;marker-start:none"/>
    <path id="use7439" d="M 455.22401,47.024461 L 370.19276,273.80571 L 372.53651,274.68071 L 457.56776,47.899461 L 455.22401,47.024461 z " style="fill:#75507b;fill-opacity:1;fill-rule:evenodd;stroke:none;stroke-width:2.5;stroke-linecap:butt;stroke-linejoin:miter;stroke-miterlimit:4;stroke-opacity:1"/>
    <path id="path8501" d="M 455.33895,50.269214 L 456.80196,53.487845 L 457.53347,44.417156 L 452.12032,51.732228 L 455.33895,50.269214 z " style="fill:#75507b;fill-rule:evenodd;stroke:#75507b;stroke-width:0.2pt;marker-start:none"/>
    <path id="path5635" d="M 32.536507,146.14946 L 30.255257,147.18071 L 86.942757,274.74321 L 89.224007,273.71196 L 32.536507,146.14946 z " style="fill:#c00;fill-opacity:1;fill-rule:evenodd;stroke:none;stroke-width:2.5;stroke-linecap:butt;stroke-linejoin:miter;stroke-miterlimit:4;stroke-opacity:1"/>
    <path id="path8493" d="M 32.60904,149.41325 L 35.908911,150.68244 L 30.070692,143.70192 L 31.339848,152.71312 L 32.60904,149.41325 z " style="fill:#c00;fill-rule:evenodd;stroke:#c00;stroke-width:0.2pt;marker-start:none"/>
    <path id="use6546" d="M 173.63026,48.399461 L 171.34901,49.430711 L 228.03651,176.99321 L 230.31776,175.96196 L 173.63026,48.399461 z " style="fill:#c00;fill-opacity:1;fill-rule:evenodd;stroke:none;stroke-width:2.5;stroke-linecap:butt;stroke-linejoin:miter;stroke-miterlimit:4;stroke-opacity:1"/>
    <path id="path8485" d="M 173.71635,51.656409 L 177.01622,52.925602 L 171.178,45.94508 L 172.44715,54.956281 L 173.71635,51.656409 z " style="fill:#c00;fill-rule:evenodd;stroke:#c00;stroke-width:0.2pt;marker-start:none"/>
    <path id="use7435" d="M 316.00526,146.14946 L 313.72401,147.18071 L 370.41151,274.74321 L 372.69276,273.71196 L 316.00526,146.14946 z " style="fill:#c00;fill-opacity:1;fill-rule:evenodd;stroke:none;stroke-width:2.5;stroke-linecap:butt;stroke-linejoin:miter;stroke-miterlimit:4;stroke-opacity:1"/>
    <path id="path8477" d="M 316.07365,149.41325 L 319.37352,150.68244 L 313.5353,143.70192 L 314.80445,152.71312 L 316.07365,149.41325 z " style="fill:#c00;fill-rule:evenodd;stroke:#c00;stroke-width:0.2pt;marker-start:none"/>
    <path id="use6544" d="M 228.91151,173.99321 L 87.161507,273.21196 L 88.599007,275.24321 L 230.34901,176.05571 L 228.91151,173.99321 z " style="fill:#3465a4;fill-opacity:1;fill-rule:evenodd;stroke:none;stroke-width:2.5;stroke-linecap:butt;stroke-linejoin:miter;stroke-miterlimit:4;stroke-opacity:1"/>
    <path id="path8469" d="M 227.16297,176.73986 L 226.54855,180.2216 L 232.28318,173.15573 L 223.68124,176.12544 L 227.16297,176.73986 z " style="fill:#3465a4;fill-rule:evenodd;stroke:#3465a4;stroke-width:0.2pt;marker-start:none"/>
    <path style="font-size:22px;font-style:normal;font-weight:bold;fill:#a40000;fill-opacity:1;stroke:none;stroke-width:1px;stroke-linecap:butt;stroke-linejoin:miter;stroke-opacity:1;font-family:DejaVu Serif" d="M 50.73703,209.79601 L 50.73703,215.51085 L 52.369843,215.51085 L 52.369843,216.81065 L 46.934296,216.81065 L 46.934296,215.36046 C 46.432986,215.96202 45.874393,216.40603 45.258515,216.69249 C 44.642623,216.97895 43.940801,217.12218 43.153046,217.12218 C 41.985725,217.12218 41.086963,216.81065 40.456757,216.18761 C 39.833709,215.5574 39.522186,214.65864 39.522187,213.49132 C 39.522186,212.20942 39.969776,211.24979 40.86496,210.61241 C 41.767301,209.97505 43.124396,209.65636 44.936249,209.65636 L 46.934296,209.65636 L 46.934296,208.9796 C 46.934288,208.05578 46.715863,207.37544 46.279023,206.93858 C 45.842166,206.49458 45.165409,206.27258 44.248749,206.27257 C 43.48963,206.27258 42.902391,206.43013 42.48703,206.74522 C 42.078824,207.05318 41.788785,207.56164 41.616913,208.27061 L 40.403046,208.27061 L 40.403046,205.81065 C 41.083382,205.56718 41.788785,205.38456 42.519257,205.2628 C 43.249721,205.14107 44.019577,205.0802 44.828827,205.08019 C 46.869835,205.0802 48.362997,205.45975 49.308319,206.21886 C 50.260782,206.97798 50.737018,208.17036 50.73703,209.79601 M 46.934296,213.22276 L 46.934296,210.93468 L 45.505585,210.93468 C 44.796595,210.93468 44.252324,211.12804 43.872773,211.51476 C 43.49321,211.90148 43.303432,212.45649 43.303437,213.17979 C 43.303432,213.9031 43.4395,214.44379 43.71164,214.80186 C 43.990931,215.15994 44.413457,215.33898 44.979218,215.33897 C 45.566451,215.33898 46.039106,215.14562 46.397187,214.7589 C 46.755251,214.37218 46.934288,213.86014 46.934296,213.22276" id="text7445"/>
    <path style="font-size:22px;font-style:normal;font-weight:bold;fill:#3465a4;fill-opacity:1;stroke:none;stroke-width:1px;stroke-linecap:butt;stroke-linejoin:miter;stroke-opacity:1;font-family:DejaVu Serif" d="M 86.615197,89.465944 L 86.615197,75.339967 L 84.982384,75.339967 L 84.982384,74.050904 L 90.417931,74.050904 L 90.417931,80.796998 C 90.74019,80.202608 91.173458,79.762179 91.717736,79.475709 C 92.261999,79.182101 92.935175,79.035291 93.737267,79.035279 C 95.362907,79.035291 96.641226,79.5724 97.572228,80.646608 C 98.510365,81.713674 98.97944,83.181771 98.979454,85.050904 C 98.97944,86.920049 98.510365,88.391727 97.572228,89.465944 C 96.641226,90.540163 95.362907,91.077271 93.737267,91.077272 C 92.935175,91.077271 92.261999,90.934042 91.717736,90.647584 C 91.173458,90.353965 90.74019,89.909955 90.417931,89.315553 L 90.417931,90.765748 L 84.982384,90.765748 L 84.982384,89.465944 L 86.615197,89.465944 M 90.417931,85.62024 C 90.417925,86.952275 90.586219,87.915491 90.922814,88.509889 C 91.266557,89.104292 91.817989,89.401492 92.577111,89.40149 C 93.357701,89.401492 93.905552,89.086388 94.220665,88.456178 C 94.542921,87.825973 94.704054,86.690883 94.704064,85.050904 C 94.704054,83.410938 94.542921,82.279429 94.220665,81.656373 C 93.905552,81.026175 93.357701,80.711071 92.577111,80.711061 C 91.817989,80.711071 91.266557,81.008271 90.922814,81.602662 C 90.586219,82.197072 90.417925,83.160287 90.417931,84.492311 L 90.417931,85.62024" id="text7449"/>
    <path style="font-size:22px;font-style:normal;font-weight:bold;fill:#5c3566;fill-opacity:1;stroke:none;stroke-width:1px;stroke-linecap:butt;stroke-linejoin:miter;stroke-opacity:1;font-family:DejaVu Serif" d="M 146.70941,161.64679 L 146.70941,167.36163 L 148.34222,167.36163 L 148.34222,168.66144 L 142.90667,168.66144 L 142.90667,167.21124 C 142.40536,167.81281 141.84677,168.25682 141.23089,168.54327 C 140.615,168.82973 139.91318,168.97296 139.12542,168.97296 C 137.9581,168.97296 137.05934,168.66144 136.42913,168.03839 C 135.80609,167.40818 135.49456,166.50942 135.49456,165.3421 C 135.49456,164.06021 135.94215,163.10057 136.83734,162.4632 C 137.73968,161.82583 139.09677,161.50715 140.90863,161.50714 L 142.90667,161.50714 L 142.90667,160.83038 C 142.90666,159.90656 142.68824,159.22623 142.2514,158.78937 C 141.81454,158.34537 141.13779,158.12336 140.22113,158.12335 C 139.46201,158.12336 138.87477,158.28091 138.45941,158.59601 C 138.0512,158.90396 137.76116,159.41242 137.58929,160.1214 L 136.37542,160.1214 L 136.37542,157.66144 C 137.05576,157.41796 137.76116,157.23534 138.49163,157.11359 C 139.2221,156.99185 139.99195,156.93098 140.8012,156.93097 C 142.84221,156.93098 144.33537,157.31054 145.2807,158.06964 C 146.23316,158.82877 146.7094,160.02115 146.70941,161.64679 M 142.90667,165.07355 L 142.90667,162.78546 L 141.47796,162.78546 C 140.76897,162.78547 140.2247,162.97883 139.84515,163.36554 C 139.46559,163.75226 139.27581,164.30728 139.27581,165.03058 C 139.27581,165.75389 139.41188,166.29458 139.68402,166.65265 C 139.96331,167.01072 140.38583,167.18976 140.95159,167.18976 C 141.53883,167.18976 142.01148,166.9964 142.36956,166.60968 C 142.72763,166.22296 142.90666,165.71092 142.90667,165.07355 M 159.30999,154.86847 L 159.30999,160.51886 L 164.96038,160.51886 L 164.96038,162.98956 L 159.30999,162.98956 L 159.30999,168.63995 L 156.83929,168.63995 L 156.83929,162.98956 L 151.1889,162.98956 L 151.1889,160.51886 L 156.83929,160.51886 L 156.83929,154.86847 L 159.30999,154.86847 M 169.42913,167.36163 L 169.42913,153.23566 L 167.79632,153.23566 L 167.79632,151.94659 L 173.23187,151.94659 L 173.23187,158.69269 C 173.55413,158.0983 173.9874,157.65787 174.53167,157.3714 C 175.07594,157.07779 175.74911,156.93098 176.5512,156.93097 C 178.17684,156.93098 179.45516,157.46809 180.38617,158.5423 C 181.3243,159.60936 181.79338,161.07746 181.79339,162.94659 C 181.79338,164.81574 181.3243,166.28742 180.38617,167.36163 C 179.45516,168.43585 178.17684,168.97296 176.5512,168.97296 C 175.74911,168.97296 175.07594,168.82973 174.53167,168.54327 C 173.9874,168.24965 173.55413,167.80564 173.23187,167.21124 L 173.23187,168.66144 L 167.79632,168.66144 L 167.79632,167.36163 L 169.42913,167.36163 M 173.23187,163.51593 C 173.23186,164.84797 173.40016,165.81118 173.73675,166.40558 C 174.08049,166.99998 174.63193,167.29718 175.39105,167.29718 C 176.17164,167.29718 176.71949,166.98208 177.0346,166.35187 C 177.35686,165.72166 177.51799,164.58657 177.518,162.94659 C 177.51799,161.30663 177.35686,160.17512 177.0346,159.55206 C 176.71949,158.92186 176.17164,158.60676 175.39105,158.60675 C 174.63193,158.60676 174.08049,158.90396 173.73675,159.49835 C 173.40016,160.09276 173.23186,161.05598 173.23187,162.388 L 173.23187,163.51593" id="text7453"/>
    <path style="font-size:22px;font-style:normal;font-weight:bold;fill:#a40000;fill-opacity:1;stroke:none;stroke-width:1px;stroke-linecap:butt;stroke-linejoin:miter;stroke-opacity:1;font-family:DejaVu Serif" d="M 216.87823,95.403703 L 216.87823,101.11855 L 218.51104,101.11855 L 218.51104,102.41835 L 213.0755,102.41835 L 213.0755,100.96816 C 212.57419,101.56972 212.01559,102.01373 211.39971,102.30019 C 210.78382,102.58664 210.082,102.72987 209.29425,102.72987 C 208.12693,102.72987 207.22816,102.41835 206.59796,101.7953 C 205.97491,101.1651 205.66339,100.26634 205.66339,99.099015 C 205.66339,97.817119 206.11098,96.857485 207.00616,96.220109 C 207.9085,95.582746 209.2656,95.264062 211.07745,95.264055 L 213.0755,95.264055 L 213.0755,94.587297 C 213.07549,93.663477 212.85706,92.983139 212.42022,92.546281 C 211.98337,92.102281 211.30661,91.880276 210.38995,91.880265 C 209.63083,91.880276 209.04359,92.037828 208.62823,92.352922 C 208.22002,92.660874 207.92999,93.169337 207.75811,93.878312 L 206.54425,93.878312 L 206.54425,91.418351 C 207.22458,91.174873 207.92999,90.992256 208.66046,90.8705 C 209.39092,90.748767 210.16078,90.687894 210.97003,90.687883 C 213.01103,90.687894 214.5042,91.067451 215.44952,91.826555 C 216.40198,92.585679 216.87822,93.778061 216.87823,95.403703 M 213.0755,98.830461 L 213.0755,96.542375 L 211.64679,96.542375 C 210.93779,96.542381 210.39352,96.73574 210.01397,97.122453 C 209.63441,97.509177 209.44463,98.064189 209.44464,98.787492 C 209.44463,99.510802 209.5807,100.05149 209.85284,100.40956 C 210.13213,100.76764 210.55466,100.94667 211.12042,100.94667 C 211.70765,100.94667 212.18031,100.75331 212.53839,100.36659 C 212.89645,99.979877 213.07549,99.467833 213.0755,98.830461" id="use7463"/>
    <path style="font-size:22px;font-style:normal;font-weight:bold;fill:#a40000;fill-opacity:1;stroke:none;stroke-width:1px;stroke-linecap:butt;stroke-linejoin:miter;stroke-opacity:1;font-family:DejaVu Serif" d="M 334.53883,210.88545 L 334.53883,216.6003 L 336.17164,216.6003 L 336.17164,217.9001 L 330.73609,217.9001 L 330.73609,216.44991 C 330.23479,217.05147 329.67619,217.49548 329.06031,217.78194 C 328.44442,218.06839 327.7426,218.21162 326.95484,218.21162 C 325.78752,218.21162 324.88876,217.9001 324.25856,217.27705 C 323.63551,216.64685 323.32398,215.74808 323.32399,214.58076 C 323.32398,213.29887 323.77158,212.33923 324.66676,211.70186 C 325.5691,211.0645 326.92619,210.74581 328.73805,210.7458 L 330.73609,210.7458 L 330.73609,210.06905 C 330.73609,209.14523 330.51766,208.46489 330.08082,208.02803 C 329.64397,207.58403 328.96721,207.36203 328.05055,207.36201 C 327.29143,207.36203 326.70419,207.51958 326.28883,207.83467 C 325.88062,208.14262 325.59058,208.65109 325.41871,209.36006 L 324.20484,209.36006 L 324.20484,206.9001 C 324.88518,206.65662 325.59058,206.47401 326.32106,206.35225 C 327.05152,206.23052 327.82138,206.16964 328.63063,206.16963 C 330.67163,206.16964 332.1648,206.5492 333.11012,207.3083 C 334.06258,208.06743 334.53882,209.25981 334.53883,210.88545 M 330.73609,214.31221 L 330.73609,212.02412 L 329.30738,212.02412 C 328.59839,212.02413 328.05412,212.21749 327.67457,212.6042 C 327.29501,212.99093 327.10523,213.54594 327.10524,214.26924 C 327.10523,214.99255 327.2413,215.53324 327.51344,215.89131 C 327.79273,216.24939 328.21526,216.42842 328.78102,216.42842 C 329.36825,216.42842 329.84091,216.23506 330.19899,215.84834 C 330.55705,215.46163 330.73609,214.94958 330.73609,214.31221" id="use7465"/>
    <path style="font-size:22px;font-style:normal;font-weight:bold;fill:#5c3566;fill-opacity:1;stroke:none;stroke-width:1px;stroke-linecap:butt;stroke-linejoin:miter;stroke-opacity:1;font-family:DejaVu Serif" d="M 435.41371,157.83371 L 435.41371,163.54855 L 437.04652,163.54855 L 437.04652,164.84836 L 431.61097,164.84836 L 431.61097,163.39816 C 431.10966,163.99973 430.55107,164.44374 429.93519,164.73019 C 429.3193,165.01665 428.61748,165.15988 427.82972,165.15988 C 426.6624,165.15988 425.76364,164.84836 425.13343,164.22531 C 424.51039,163.5951 424.19886,162.69634 424.19886,161.52902 C 424.19886,160.24713 424.64645,159.28749 425.54164,158.65012 C 426.44398,158.01275 427.80107,157.69407 429.61293,157.69406 L 431.61097,157.69406 L 431.61097,157.0173 C 431.61096,156.09348 431.39254,155.41315 430.9557,154.97629 C 430.51884,154.53229 429.84209,154.31028 428.92543,154.31027 C 428.16631,154.31028 427.57907,154.46783 427.16371,154.78293 C 426.7555,155.09088 426.46546,155.59934 426.29359,156.30832 L 425.07972,156.30832 L 425.07972,153.84836 C 425.76006,153.60488 426.46546,153.42226 427.19593,153.30051 C 427.9264,153.17877 428.69625,153.1179 429.5055,153.11789 C 431.54651,153.1179 433.03967,153.49746 433.985,154.25656 C 434.93746,155.01569 435.4137,156.20807 435.41371,157.83371 M 431.61097,161.26047 L 431.61097,158.97238 L 430.18226,158.97238 C 429.47327,158.97239 428.929,159.16575 428.54945,159.55246 C 428.16989,159.93918 427.98011,160.4942 427.98011,161.2175 C 427.98011,161.94081 428.11618,162.4815 428.38832,162.83957 C 428.66761,163.19764 429.09013,163.37668 429.65589,163.37668 C 430.24313,163.37668 430.71578,163.18332 431.07386,162.7966 C 431.43193,162.40988 431.61096,161.89784 431.61097,161.26047 M 448.01429,151.05539 L 448.01429,156.70578 L 453.66468,156.70578 L 453.66468,159.17648 L 448.01429,159.17648 L 448.01429,164.82687 L 445.54359,164.82687 L 445.54359,159.17648 L 439.8932,159.17648 L 439.8932,156.70578 L 445.54359,156.70578 L 445.54359,151.05539 L 448.01429,151.05539 M 458.13343,163.54855 L 458.13343,149.42258 L 456.50062,149.42258 L 456.50062,148.13351 L 461.93617,148.13351 L 461.93617,154.87961 C 462.25843,154.28522 462.6917,153.84479 463.23597,153.55832 C 463.78024,153.26471 464.45341,153.1179 465.2555,153.11789 C 466.88114,153.1179 468.15946,153.65501 469.09047,154.72922 C 470.0286,155.79628 470.49768,157.26438 470.49769,159.13351 C 470.49768,161.00266 470.0286,162.47434 469.09047,163.54855 C 468.15946,164.62277 466.88114,165.15988 465.2555,165.15988 C 464.45341,165.15988 463.78024,165.01665 463.23597,164.73019 C 462.6917,164.43657 462.25843,163.99256 461.93617,163.39816 L 461.93617,164.84836 L 456.50062,164.84836 L 456.50062,163.54855 L 458.13343,163.54855 M 461.93617,159.70285 C 461.93616,161.03489 462.10446,161.9981 462.44105,162.5925 C 462.78479,163.1869 463.33623,163.4841 464.09535,163.4841 C 464.87594,163.4841 465.42379,163.169 465.7389,162.53879 C 466.06116,161.90858 466.22229,160.77349 466.2223,159.13351 C 466.22229,157.49355 466.06116,156.36204 465.7389,155.73898 C 465.42379,155.10878 464.87594,154.79368 464.09535,154.79367 C 463.33623,154.79368 462.78479,155.09088 462.44105,155.68527 C 462.10446,156.27968 461.93616,157.2429 461.93617,158.57492 L 461.93617,159.70285" id="use7467"/>
    <path style="font-size:22px;font-style:normal;font-weight:bold;fill:#3465a4;fill-opacity:1;stroke:none;stroke-width:1px;stroke-linecap:butt;stroke-linejoin:miter;stroke-opacity:1;font-family:DejaVu Serif" d="M 172.13703,237.63115 L 172.13703,223.50517 L 170.50422,223.50517 L 170.50422,222.21611 L 175.93977,222.21611 L 175.93977,228.9622 C 176.26203,228.36781 176.6953,227.92738 177.23957,227.64092 C 177.78384,227.34731 178.45701,227.2005 179.25911,227.20049 C 180.88475,227.2005 182.16306,227.73761 183.09407,228.81181 C 184.0322,229.87888 184.50128,231.34698 184.50129,233.21611 C 184.50128,235.08525 184.0322,236.55693 183.09407,237.63115 C 182.16306,238.70537 180.88475,239.24248 179.25911,239.24248 C 178.45701,239.24248 177.78384,239.09925 177.23957,238.81279 C 176.6953,238.51917 176.26203,238.07516 175.93977,237.48076 L 175.93977,238.93095 L 170.50422,238.93095 L 170.50422,237.63115 L 172.13703,237.63115 M 175.93977,233.78545 C 175.93976,235.11748 176.10806,236.0807 176.44465,236.67509 C 176.7884,237.2695 177.33983,237.5667 178.09895,237.5667 C 178.87954,237.5667 179.42739,237.25159 179.7425,236.62138 C 180.06476,235.99118 180.22589,234.85609 180.2259,233.21611 C 180.22589,231.57614 180.06476,230.44463 179.7425,229.82158 C 179.42739,229.19138 178.87954,228.87628 178.09895,228.87627 C 177.33983,228.87628 176.7884,229.17348 176.44465,229.76787 C 176.10806,230.36228 175.93976,231.32549 175.93977,232.65752 L 175.93977,233.78545" id="use7469"/>
    <path style="font-size:22px;font-style:normal;font-weight:bold;fill:#3465a4;fill-opacity:1;stroke:none;stroke-width:1px;stroke-linecap:butt;stroke-linejoin:miter;stroke-opacity:1;font-family:DejaVu Serif" d="M 365.51438,92.734292 L 365.51438,78.608316 L 363.88157,78.608316 L 363.88157,77.319253 L 369.31712,77.319253 L 369.31712,84.065347 C 369.63938,83.470956 370.07265,83.030527 370.61692,82.744058 C 371.16119,82.45045 371.83436,82.30364 372.63646,82.303628 C 374.2621,82.30364 375.54041,82.840749 376.47142,83.914956 C 377.40955,84.982023 377.87863,86.45012 377.87864,88.319253 C 377.87863,90.188398 377.40955,91.660076 376.47142,92.734292 C 375.54041,93.808511 374.2621,94.34562 372.63646,94.34562 C 371.83436,94.34562 371.16119,94.202391 370.61692,93.915933 C 370.07265,93.622313 369.63938,93.178304 369.31712,92.583902 L 369.31712,94.034097 L 363.88157,94.034097 L 363.88157,92.734292 L 365.51438,92.734292 M 369.31712,88.888589 C 369.31711,90.220624 369.48541,91.183839 369.822,91.778238 C 370.16575,92.37264 370.71718,92.66984 371.4763,92.669839 C 372.25689,92.66984 372.80474,92.354737 373.11985,91.724527 C 373.44211,91.094321 373.60324,89.959231 373.60325,88.319253 C 373.60324,86.679287 373.44211,85.547777 373.11985,84.924722 C 372.80474,84.294523 372.25689,83.979419 371.4763,83.979409 C 370.71718,83.979419 370.16575,84.27662 369.822,84.871011 C 369.48541,85.465421 369.31711,86.428636 369.31712,87.760659 L 369.31712,88.888589" id="use7471"/>
  </g>
</svg>